<svg xmlns="http://www.w3.org/2000/svg" viewBox="0 0 32 32" width="16" height="16">
  <!-- 高质感极简 Rust 齿轮螃蟹 SVG 图标 -->
  <circle cx="16" cy="16" r="11" fill="none" stroke="#DE5C34" stroke-width="2.5"/>
  <path d="M16 2.5a13.5 13.5 0 0 1 13.5 13.5A13.5 13.5 0 0 1 16 29.5 13.5 13.5 0 0 1 2.5 16 13.5 13.5 0 0 1 16 2.5zm0 2.5A11 11 0 0 0 5 16a11 11 0 0 0 11 11 11 11 0 0 0 11-11A11 11 0 0 0 16 5z" fill="#DE5C34"/>
  <!-- 齿轮齿 -->
  <path d="M16 1L18 3h-4zM16 31l2-2h-4zM1 16l2 2v-4zM31 16l-2 2v-4z" fill="#DE5C34"/>
  <path d="M5.39 5.39l1.41 2.12-2.12-1.41zM26.61 26.61l-1.41-2.12 2.12 1.41zM5.39 26.61l2.12-1.41-1.41 2.12zM26.61 5.39l-2.12 1.41 1.41-2.12z" fill="#DE5C34"/>
  <!-- 螃蟹身子 -->
  <ellipse cx="16" cy="17" rx="6" ry="4.5" fill="#DE5C34"/>
  <!-- 钳子与眼睛 -->
  <circle cx="13.5" cy="14" r="1.2" fill="#FFFFFF"/>
  <circle cx="18.5" cy="14" r="1.2" fill="#FFFFFF"/>
  <circle cx="13.5" cy="14" r="0.6" fill="#000000"/>
  <circle cx="18.5" cy="14" r="0.6" fill="#000000"/>
  <!-- 蟹钳 -->
  <path d="M11.5 14.5c-.8-1.5-2.5-1-2.5.5s1 2.5 2.5 1" fill="#DE5C34"/>
  <path d="M20.5 14.5c.8-1.5 2.5-1 2.5.5s-1 2.5-2.5 1" fill="#DE5C34"/>
</svg>
